<?xml version="1.0" encoding="UTF-8"?>
<!DOCTYPE svg PUBLIC "-//W3C//DTD SVG 1.1//EN" "http://www.w3.org/Graphics/SVG/1.1/DTD/svg11.dtd">
<!-- Creator: CorelDRAW 2017 -->
<svg xmlns="http://www.w3.org/2000/svg" xml:space="preserve" width="169.333mm" height="169.333mm" version="1.1" style="shape-rendering:geometricPrecision; text-rendering:geometricPrecision; image-rendering:optimizeQuality; fill-rule:evenodd; clip-rule:evenodd"
viewBox="0 0 1955 1955"
 xmlns:xlink="http://www.w3.org/1999/xlink">
 <defs>
  <style type="text/css">
   <![CDATA[
    .fil1 {fill:#C0ADD3}
    .fil2 {fill:#623191;fill-rule:nonzero}
    .fil3 {fill:black;fill-rule:nonzero;fill-opacity:0.250980}
    .fil0 {fill:#623191;fill-rule:nonzero;fill-opacity:0.400000}
   ]]>
  </style>
 </defs>
 <g id="Layer_x0020_1">
  <metadata id="CorelCorpID_0Corel-Layer"/>
  <path class="fil0" d="M1611 978c0,-175 -71,-333 -185,-448 -115,-115 -273,-185 -448,-185 -175,0 -333,71 -448,185 -115,115 -185,273 -185,448 0,175 71,333 185,448 115,115 273,185 448,185 175,0 333,-71 448,-185 115,-115 185,-273 185,-448zm-176 -458c117,117 190,279 190,458 0,179 -72,341 -190,458 -117,117 -279,190 -458,190 -179,0 -341,-72 -458,-190 -117,-117 -190,-279 -190,-458 0,-179 72,-341 190,-458 117,-117 279,-190 458,-190 179,0 341,72 458,190z"/>
  <path class="fil1" d="M677 1072l-19 179c0,1 0,1 0,1l0 45c0,7 5,12 12,12 1,0 2,0 4,-1l197 -48c4,-1 7,-1 10,1l197 71c3,1 6,1 8,0l209 -75c5,-2 8,-6 8,-11l0 -45c0,-1 0,-1 0,-4l-63 -443c-1,-4 0,-8 2,-11 7,-12 10,-26 10,-39 0,-22 -9,-43 -24,-59 -16,-16 -36,-24 -59,-24 -22,0 -43,9 -59,24 -16,16 -24,36 -24,59 0,11 2,22 7,33 2,5 2,9 0,14 -2,5 -5,8 -10,10l-27 10c-5,2 -9,2 -14,0l-152 -69c-3,-1 -6,-1 -10,0l-163 51c-5,1 -8,5 -8,10l-17 159c-1,5 -3,9 -7,12 -3,2 -6,5 -9,8 -16,16 -25,38 -25,61 0,21 7,40 21,56 3,4 5,8 4,13z"/>
  <path class="fil2" d="M682 1262l0 20 192 -47c3,-1 5,0 7,1l201 73 196 -70 0 -19 -81 29 -110 39c-3,1 -6,1 -9,0l-203 -72 -195 48zm68 -174l0 62c0,7 -5,12 -12,12 -7,0 -12,-5 -12,-12l0 -62c-9,-1 -17,-4 -25,-8l-17 157 191 -47c2,-1 5,-1 8,0l202 72 194 -69 -61 -422c-10,7 -23,13 -36,15l0 70c0,7 -5,12 -12,12 -7,0 -12,-5 -12,-12l0 -70c-13,-2 -25,-7 -35,-14l-41 16c0,0 -1,0 -2,1l-22 8 -3 1c-3,1 -6,1 -9,0l-159 -72 -152 47 -12 117c0,0 0,1 0,1l-3 28c5,-1 10,-2 15,-2l0 0 0 0 0 0 0 0 1 0 0 0 0 0 0 0 0 0 0 0 0 0 0 0 0 0 0 0 0 0 0 0 0 0 1 0 0 0 1 0 0 0 1 0 0 0 1 0 0 0 1 0 0 0 1 0 0 0 1 0 0 0 1 0 0 0 1 0 0 0 1 0 0 0 1 0 0 0 1 0 0 0 1 0 0 0 1 0 0 0 1 0 0 0 1 0 0 0 1 0 0 0 1 0 0 0 1 0 0 0 1 0 0 0 1 0 1 0 0 0 0 0 1 0 1 0 0 0 0 0 1 0 0 0 1 0 0 0 0 0 1 0 1 0 0 0 1 0 0 0 1 0 0 0 1 0 0 0 1 0 0 0 1 0 0 0 1 0 0 0 0 0 0 0 0 0 0 0 0 0 0 0 0 0 0 0 0 0 1 0 0 0 1 0 0 0 0 0 1 0 1 0 0 0 1 0 0 0 1 1 1 0 0 0 1 0 0 0 1 0 0 0 1 0 0 0 1 0 0 0 1 0 0 0 1 0 0 0 0 0 1 1 1 0 0 0 1 0 0 0 1 1 0 0 1 1 0 0c1,1 2,1 2,2l1 1 0 0 0 0 1 1 1 1 0 0 0 0 1 1c16,16 25,37 25,61 0,24 -10,45 -25,61l-1 1 0 0 0 0 -1 1 -1 1 0 0 0 0 -1 1c-1,1 -2,1 -2,2l0 0 -1 1 0 0 -1 1 0 0 -1 0 0 0 -1 0 -1 1 0 0 0 0 -1 0 0 0 -1 0 0 0 -1 0 0 0 -1 0 0 0 -1 0 0 0 -1 0 0 0 -1 0 -1 1 0 0 -1 0 0 0 -1 0 -1 0 0 0 0 0 -1 0 0 0 -1 0 0 0 0 0 0 0 0 0 0 0 0 0 0 0 0 0 0 0 0 0 -1 0 0 0 -1 0 0 0 -1 0 0 0 -1 0 0 0 -1 0 0 0 -1 0 0 0 -1 0 -1 0 0 0 0 0 -1 0 0 0 -1 0 0 0 0 0 -1 0 -1 0 0 0 0 0 -1 0 -1 0 0 0 -1 0 0 0 -1 0 0 0 -1 0 0 0 -1 0 0 0 -1 0 0 0 -1 0 0 0 -1 0 0 0 -1 0 0 0 -1 0zm-15 -146c-16,1 -30,7 -41,18 -11,11 -18,26 -18,43 0,17 7,32 18,43 10,10 24,17 39,18l0 0 0 0 0 0 1 0 0 0 0 0 1 0 0 0 0 0 0 0 0 0 0 0 0 0 0 0 1 0 0 0 1 0 0 0 1 0 0 0 1 0 0 0 1 0 0 0 1 0 0 0 1 0 0 0 1 0 0 0 1 0 0 0 1 0 0 0 1 0 0 0 1 0 1 0 0 0 1 0 0 0 1 0 0 0 1 0 0 0 1 0 0 0 1 0 0 0 1 0 0 0 0 0 0 0 0 0 0 0 0 0 0 0 0 0 0 0 0 0 0 0 0 0 0 0 0 0 0 0 0 0 0 0 0 0 0 0 0 0 0 0 0 0 1 0 0 0 0 0 1 -1 0 0 0 0 0 0 0 0 0 0 0 0c1,0 2,-1 3,-1l0 0 0 0 0 0 0 0 0 0 0 0 0 0 0 0 0 0 0 0c1,0 1,-1 2,-1l0 0 0 0c1,-1 3,-2 4,-3l0 0 1 0 0 0 1 0 0 0 1 0 0 0 1 -1 0 0 1 0 0 0 1 0 1 -1c6,-6 10,-13 13,-20l0 0c0,-1 1,-2 1,-4l0 0 0 -1 0 -1 0 0 0 -1 0 -1 0 0 0 -1 0 0 0 -1 0 -1 0 0 0 -1 0 -1 0 0 0 -1 0 -1 0 -1 0 -1 0 -1 0 -1 0 -1 0 -1 0 -1 0 -1 0 -1 0 -1 0 -1 0 -1 0 -1 0 -1 0 -1c0,-17 -7,-32 -18,-43 -5,-5 -12,-10 -19,-13l0 0 0 0 0 0 0 0 0 0 0 0c-1,0 -1,-1 -2,-1l0 0 0 0 0 0 0 0 0 0 0 0 0 0 0 0 0 0 0 0 0 0 0 0 0 0 0 0 0 0 0 0 0 0 0 0 -1 0 0 0 -1 0 0 0 -1 0 0 0 -1 0 0 0 -1 0 0 0 -1 0 0 0 -1 0 -1 0 0 0 -1 0 0 0 -1 0 0 0 -1 0 0 0 -1 0 0 0 -1 0 0 0 -1 0 0 0 -1 0 0 0 -1 0 0 0 -1 0 0 0 -1 0 0 0 -1 0 0 0 0 0 0 0 0 0 0 0 0 0 0 0 0 0 0 0 0 0 0 0 0 0 0 0zm-57 123l-1 -1c-16,-16 -25,-37 -25,-61 0,-24 10,-45 25,-61 5,-5 10,-9 15,-12l18 -167c1,-5 4,-9 9,-10l164 -51c3,-1 6,-1 9,0l158 72 53 -20c-10,-14 -16,-31 -16,-49 0,-23 9,-44 24,-59 15,-15 36,-24 59,-24 23,0 44,9 59,24 15,15 24,36 24,59 0,16 -5,32 -13,44l65 450c0,1 0,2 0,2l0 45c0,5 -3,10 -8,11l-208 74 0 0c-3,1 -5,1 -8,0l-202 -73 -203 50c-1,0 -3,1 -4,1 -7,0 -12,-5 -12,-12l0 -45 0 0c0,0 0,-1 0,-1l20 -187zm425 35l0 70c0,7 -5,12 -12,12 -7,0 -12,-5 -12,-12l0 -70c-18,-3 -34,-11 -46,-23 -15,-15 -24,-36 -24,-59 0,-23 9,-44 24,-59 15,-15 36,-24 59,-24 23,0 44,9 59,24 15,15 24,36 24,59 0,23 -9,43 -24,58 -12,12 -28,21 -46,24zm46 -82c0,-16 -6,-31 -17,-41 -11,-11 -25,-17 -41,-17 -16,0 -31,6 -41,17 -11,11 -17,25 -17,41 0,16 6,31 17,41l0 0c11,11 25,17 41,17l1 0c16,-1 30,-7 41,-18 11,-11 17,-25 17,-41zm78 -313c0,-16 -6,-31 -17,-41 -11,-11 -25,-17 -41,-17 -16,0 -31,6 -41,17 -11,11 -17,25 -17,41 0,16 6,31 17,41 10,10 23,16 38,17l0 0 0 0 0 0 0 0 0 0 0 0 0 0 0 0 0 0 0 0 0 0 0 0 0 0 1 0 0 0 0 0 0 0 0 0 0 0 0 0 0 0 0 0 0 0 0 0 0 0 0 0 0 0 0 0 0 0 0 0 0 0 0 0 0 0 0 0 0 0 0 0 0 0 0 0 0 0 1 0 0 0c13,-2 24,-8 33,-17 11,-11 17,-25 17,-41z"/>
  <path class="fil3" d="M1937 978c0,-265 -107,-505 -281,-678 -174,-174 -413,-281 -678,-281 -265,0 -505,107 -678,281 -174,174 -281,413 -281,678 0,265 107,505 281,678 174,174 413,281 678,281 265,0 505,-107 678,-281 174,-174 281,-413 281,-678zm-268 -691c177,177 286,421 286,691 0,270 -109,514 -286,691 -177,177 -421,286 -691,286 -270,0 -514,-109 -691,-286 -177,-177 -286,-421 -286,-691 0,-270 109,-514 286,-691 177,-177 421,-286 691,-286 270,0 514,109 691,286z"/>
 </g>
</svg>
