<?xml version="1.0" encoding="UTF-8"?>
<!DOCTYPE svg PUBLIC "-//W3C//DTD SVG 1.1//EN" "http://www.w3.org/Graphics/SVG/1.1/DTD/svg11.dtd">
<!-- Creator: CorelDRAW 2017 -->
<svg xmlns="http://www.w3.org/2000/svg" xml:space="preserve" width="169.333mm" height="169.333mm" version="1.1" style="shape-rendering:geometricPrecision; text-rendering:geometricPrecision; image-rendering:optimizeQuality; fill-rule:evenodd; clip-rule:evenodd"
viewBox="0 0 1280 1280"
 xmlns:xlink="http://www.w3.org/1999/xlink">
 <defs>
  <style type="text/css">
   <![CDATA[
    .fil1 {fill:#623191}
    .fil3 {fill:black;fill-rule:nonzero;fill-opacity:0.250980}
    .fil2 {fill:#623191;fill-opacity:0.400000}
    .fil0 {fill:#623191;fill-rule:nonzero;fill-opacity:0.400000}
   ]]>
  </style>
 </defs>
 <g id="Layer_x0020_1">
  <metadata id="CorelCorpID_0Corel-Layer"/>
  <path class="fil0" d="M1055 640c0,-114 -46,-218 -121,-293 -75,-75 -179,-121 -293,-121 -114,0 -218,46 -293,121 -75,75 -121,179 -121,293 0,114 46,218 121,293 75,75 179,121 293,121 114,0 218,-46 293,-121 75,-75 121,-179 121,-293zm-115 -300c77,77 124,183 124,300 0,117 -47,223 -124,300 -77,77 -183,124 -300,124 -117,0 -223,-47 -300,-124 -77,-77 -124,-183 -124,-300 0,-117 47,-223 124,-300 77,-77 183,-124 300,-124 117,0 223,47 300,124z"/>
  <path class="fil1" d="M561 669c0,0 0,0 0,1 0,106 86,191 191,191 106,0 191,-86 191,-191 0,0 0,0 0,0 0,0 0,0 0,0 0,-59 -27,-113 -73,-150 -1,-1 -1,-1 -1,-2 0,-1 0,-2 1,-3 11,-13 15,-30 16,-46 1,-13 -1,-29 -10,-39 -7,-7 -16,-10 -26,-10 -18,0 -38,10 -53,18 -15,9 -29,20 -42,32 -1,1 -3,1 -5,0 -13,-12 -27,-23 -42,-32 -15,-9 -35,-18 -53,-18 -10,0 -19,3 -26,10 -10,10 -11,26 -10,39 1,16 5,34 16,46 1,1 1,2 1,3 0,1 -1,2 -1,2 -46,36 -73,91 -73,150zm192 173c-92,0 -169,-73 -173,-166 0,-1 1,-2 2,-3 27,-18 54,-38 80,-58 30,-25 68,-58 88,-92 1,-1 2,-2 3,-2 1,0 2,1 3,2 20,34 57,67 88,92 25,21 52,40 80,58 1,1 2,2 2,3 -4,92 -80,166 -173,166zm17 -345c78,8 142,68 154,146 0,1 0,3 -2,4 -1,1 -3,1 -4,0 -44,-30 -131,-96 -152,-145 -1,-1 0,-2 0,-4 1,-1 2,-2 3,-1zm-188 146c12,-78 75,-138 154,-146 1,0 2,0 3,1 1,1 1,2 0,4 -21,49 -107,114 -152,145 -1,1 -3,1 -4,0 -1,-1 -2,-2 -2,-4zm268 -139c-22,-13 -46,-21 -70,-25 -1,0 -3,-1 -3,-3 0,-1 0,-3 1,-4 17,-14 50,-36 73,-36 4,0 9,1 12,4 5,6 6,18 5,25 -1,13 -3,28 -14,38 -1,1 -3,1 -4,0zm-124 -25c-25,4 -49,12 -71,25 -1,1 -3,1 -4,0 -10,-9 -13,-25 -14,-38 0,-8 0,-19 5,-25 3,-3 8,-4 12,-4 23,0 56,22 73,36 1,1 2,2 1,4 0,1 -2,2 -3,3zm78 188c9,0 16,-7 16,-16 0,-9 -7,-16 -16,-16 -9,0 -16,7 -16,16 0,9 7,16 16,16zm-102 0c9,0 16,-7 16,-16 0,-9 -7,-16 -16,-16 -9,0 -16,7 -16,16 0,9 7,16 16,16zm133 72c-4,-3 -10,-3 -13,1 -17,21 -42,33 -69,33 -27,0 -52,-12 -69,-33 -3,-4 -9,-5 -13,-1 -4,3 -5,9 -1,13 20,26 51,40 84,40 33,0 63,-14 84,-40 3,-4 3,-10 -1,-13z"/>
  <path class="fil1" d="M336 669c0,-69 38,-133 98,-167 1,0 1,-1 2,-2 6,-14 10,-35 -2,-48 -7,-7 -17,-7 -25,-1 -7,5 -12,15 -7,23 3,5 1,10 -4,13 -5,3 -10,1 -13,-4 -9,-17 -2,-36 12,-47 16,-12 36,-11 50,3 12,12 15,29 12,45 0,1 0,2 1,3 1,1 2,1 3,1 20,-7 42,-11 63,-11 27,0 53,6 77,16 2,7 4,14 8,20l-3 3c-25,-13 -52,-20 -81,-20 -23,0 -45,4 -66,13 -1,0 -2,1 -2,3 0,1 0,2 1,3 25,27 63,47 104,60 -3,6 -5,11 -8,17 -35,-11 -69,-28 -96,-51 -1,-1 -2,-1 -4,-1 -1,0 -2,1 -2,3 -2,12 -5,23 -9,34 -16,43 -48,76 -89,96 -1,1 -2,2 -2,3 4,92 81,164 173,164 29,0 57,-7 81,-20 5,5 10,9 15,13 -28,17 -61,26 -96,26 -105,0 -191,-86 -191,-191 0,0 0,0 0,-1zm26 -18c45,-26 72,-71 77,-122 0,-1 -1,-3 -2,-3 -1,-1 -3,-1 -4,0 -42,28 -70,72 -77,122 0,1 0,3 2,3 1,1 3,1 4,0zm71 103c10,-7 18,-19 16,-31 -1,-5 3,-10 8,-11 5,-1 10,3 11,8 1,6 0,14 -2,19 0,1 0,2 1,3 17,20 42,32 68,32 11,0 22,-2 33,-6 3,6 6,11 10,16 -13,6 -28,9 -42,9 -29,0 -56,-11 -76,-32 -1,-1 -2,-1 -3,-1 -1,0 -2,0 -3,1 -3,3 -6,6 -9,8 -2,1 -3,2 -5,2 -3,0 -6,-1 -8,-4 -3,-4 -2,-10 2,-13zm37 -104c1,-8 8,-13 16,-13 8,0 14,6 16,13l-31 0z"/>
  <path class="fil2" d="M432 504c-59,34 -96,97 -96,165 0,0 0,1 0,1 0,105 86,191 191,191 34,0 67,-9 96,-26 0,-4 3,-8 7,-10 4,-2 8,-1 12,1 32,23 70,35 110,35 106,0 192,-86 191,-191 0,-56 -25,-109 -67,-145 -4,-4 -5,-10 -2,-15 8,-12 11,-27 12,-41 1,-13 -1,-29 -10,-39 -7,-7 -16,-10 -26,-10 -18,0 -38,9 -53,18 -13,8 -26,17 -37,27 -4,4 -11,4 -15,0 -12,-10 -24,-19 -37,-27 -15,-9 -35,-18 -53,-18 -10,0 -19,3 -26,10 -10,10 -11,26 -10,39 0,4 1,9 2,13 1,4 -1,8 -4,11 -3,3 -8,3 -12,2 -24,-10 -50,-16 -76,-16 -18,0 -35,2 -52,7 -4,1 -7,0 -10,-2 -3,-2 -5,-6 -5,-9 0,-13 -4,-25 -13,-35 -14,-14 -34,-14 -50,-3 -15,11 -21,31 -12,47 3,4 8,6 13,4 4,-3 6,-8 4,-13 -5,-8 0,-18 7,-23 8,-6 18,-6 25,1 12,12 8,31 3,45 -1,3 -3,5 -5,6z"/>
  <path class="fil3" d="M1268 640c0,-173 -70,-330 -184,-444 -114,-114 -271,-184 -444,-184 -173,0 -330,70 -444,184 -114,114 -184,271 -184,444 0,173 70,330 184,444 114,114 271,184 444,184 173,0 330,-70 444,-184 114,-114 184,-271 184,-444zm-175 -453c116,116 187,276 187,453 0,177 -72,337 -187,453 -116,116 -276,187 -453,187 -177,0 -337,-72 -453,-187 -116,-116 -187,-276 -187,-453 0,-177 72,-337 187,-453 116,-116 276,-187 453,-187 177,0 337,72 453,187z"/>
 </g>
</svg>
